<svg xmlns="http://www.w3.org/2000/svg" version="1.0" width="1148.000000pt" height="1280.000000pt" viewBox="0 0 1148.000000 1280.000000" preserveAspectRatio="xMidYMid meet">
<g transform="translate(0.000000,1280.000000) scale(0.100000,-0.100000)" fill="#c8ff00" stroke="none">
<path d="M5620 12790 c-36 -4 -130 -13 -210 -19 -1259 -101 -2342 -534 -3250 -1299 -155 -131 -483 -458 -612 -612 -258 -305 -473 -616 -666 -961 -455 -814 -740 -1750 -836 -2744 -8 -82 -23 -282 -32 -443 -17 -279 -17 -306 0 -580 19 -324 37 -518 67 -737 224 -1648 970 -3091 2093 -4049 869 -742 1955 -1191 3157 -1305 118 -11 259 -26 315 -32 71 -7 130 -7 200 0 54 6 160 15 234 21 1265 103 2372 551 3270 1323 142 122 463 446 582 587 317 374 578 771 798 1210 379 757 618 1602 704 2495 8 83 23 282 32 443 17 279 17 306 0 580 -9 158 -24 355 -32 437 -171 1771 -935 3331 -2128 4349 -868 741 -1957 1191 -3157 1305 -118 11 -257 25 -309 31 -104 11 -124 11 -220 0z m425 -829 c277 -51 517 -142 770 -292 287 -169 628 -497 872 -839 489 -687 852 -1682 1022 -2805 89 -595 116 -960 116 -1610 -1 -487 -8 -658 -46 -1045 -134 -1372 -523 -2573 -1092 -3370 -239 -335 -549 -635 -852 -825 -317 -200 -759 -335 -1095 -335 -336 0 -778 135 -1095 335 -303 190 -613 490 -852 825 -569 797 -958 1998 -1092 3370 -38 387 -45 558 -46 1045 0 650 27 1015 116 1610 170 1123 533 2118 1022 2805 244 342 585 670 872 839 296 175 584 273 925 315 82 10 349 -4 455 -23z" fill="#c8ff00"/>
</g>
</svg>