<svg xmlns="http://www.w3.org/2000/svg" version="1.0" width="1142.000000pt" height="1280.000000pt" viewBox="0 0 1142.000000 1280.000000" preserveAspectRatio="xMidYMid meet">
<g transform="translate(0.000000,1280.000000) scale(0.100000,-0.100000)" fill="#8c00ff" stroke="none">
<path d="M3325 12791 c-6 -5 -736 -241 -1624 -525 -888 -284 -1616 -518 -1620 -521 -3 -3 0 -14 6 -23 6 -9 828 -1171 1827 -2582 999 -1411 1815 -2571 1813 -2577 -2 -13 -3691 -5225 -3714 -5248 -9 -9 -13 -42 -13 -107 l0 -93 1468 -539 c807 -297 1485 -548 1506 -558 25 -11 62 -18 100 -18 l61 0 1279 1891 c886 1310 1284 1889 1294 1887 13 -3 2421 -3687 2454 -3755 10 -21 19 -23 80 -23 40 0 78 6 91 14 12 7 712 258 1555 557 l1532 543 0 97 c0 54 -4 99 -9 101 -7 2 -3645 5109 -3718 5220 l-25 37 1801 2582 c991 1421 1798 2586 1794 2590 -5 4 -690 239 -1524 522 -834 283 -1526 520 -1537 526 -11 6 -49 11 -84 10 l-63 0 -805 -1215 c-1351 -2040 -1525 -2299 -1537 -2299 -7 0 -264 396 -571 880 -307 484 -807 1271 -1110 1749 -304 477 -552 872 -552 877 0 12 -143 12 -155 0z" fill="#8c00ff"/>
</g>
</svg>